<svg xmlns="http://www.w3.org/2000/svg" width="20" height="20" viewBox="0 0 20 20">
  <defs>
    <style>
      .cls-1 {
        fill: #aaa;
        fill-rule: evenodd;
      }
    </style>
  </defs>
  <path class="cls-1" d="M19.821,9.4H17.093l1.245-1.556a0.461,0.461,0,1,0-.72-0.576L15.912,9.4H11.254l3.227-3.227h2.575a0.461,0.461,0,0,0,0-.922H15.4l1.978-1.978a0.461,0.461,0,0,0-.652-0.652L14.751,4.6V2.944a0.461,0.461,0,0,0-.922,0V5.519L10.6,8.746V4.088l2.132-1.706a0.461,0.461,0,0,0-.576-0.72L10.6,2.907V0.179a0.461,0.461,0,1,0-.922,0V2.907L8.124,1.662a0.461,0.461,0,1,0-.576.72L9.68,4.088V8.746L6.453,5.519V2.944a0.461,0.461,0,1,0-.922,0V4.6L3.553,2.619A0.461,0.461,0,1,0,2.9,3.27L4.88,5.249H3.227a0.461,0.461,0,1,0,0,.922H5.8L9.028,9.4H4.37L2.665,7.266a0.461,0.461,0,0,0-.72.576L3.19,9.4H0.461a0.461,0.461,0,1,0,0,.922H3.19L1.945,11.876a0.461,0.461,0,0,0,.72.576L4.37,10.32H9.028L5.8,13.547H3.227a0.461,0.461,0,0,0,0,.922H4.88L2.9,16.448a0.461,0.461,0,0,0,.652.652l1.98-1.98v1.653a0.461,0.461,0,0,0,.922,0V14.2L9.68,10.972V15.63L7.548,17.335a0.461,0.461,0,1,0,.576.72L9.68,16.811v2.728a0.461,0.461,0,0,0,.922,0V16.811l1.556,1.244a0.461,0.461,0,1,0,.576-0.72L10.6,15.63V10.972L13.829,14.2v2.575a0.461,0.461,0,0,0,.922,0V15.12L16.73,17.1a0.461,0.461,0,0,0,.652-0.652L15.4,14.468h1.653a0.461,0.461,0,1,0,0-.922H14.481L11.254,10.32h4.658l1.706,2.132a0.461,0.461,0,0,0,.72-0.576L17.093,10.32h2.729A0.461,0.461,0,1,0,19.821,9.4Z"/>
</svg>
