<svg xmlns="http://www.w3.org/2000/svg" width="20" height="18" viewBox="0 0 20 18">
  <defs>
    <style>
      .cls-1 {
        fill: #aaa;
        fill-rule: evenodd;
      }
    </style>
  </defs>
  <path class="cls-1" d="M18.333,4.7H14.167V3.8A1.739,1.739,0,0,0,12.5,2h-5A1.739,1.739,0,0,0,5.833,3.8V4.7H1.667A1.739,1.739,0,0,0,0,6.5V18.2A1.739,1.739,0,0,0,1.667,20H18.333A1.739,1.739,0,0,0,20,18.2V6.5A1.739,1.739,0,0,0,18.333,4.7ZM6.667,3.8A0.87,0.87,0,0,1,7.5,2.9h5a0.87,0.87,0,0,1,.833.9V4.7H6.667V3.8Zm12.5,14.4a0.87,0.87,0,0,1-.833.9H1.667a0.87,0.87,0,0,1-.833-0.9V11.65a1.557,1.557,0,0,0,.833.25H8.333v1.35a0.434,0.434,0,0,0,.417.45h2.5a0.434,0.434,0,0,0,.417-0.45V11.9h6.667a1.556,1.556,0,0,0,.833-0.25V18.2h0Zm-10-5.4V11h1.667v1.8H9.167Zm10-2.7a0.87,0.87,0,0,1-.833.9H11.667V10.55a0.434,0.434,0,0,0-.417-0.45H8.75a0.434,0.434,0,0,0-.417.45V11H1.667a0.87,0.87,0,0,1-.833-0.9V6.5a0.87,0.87,0,0,1,.833-0.9H18.333a0.87,0.87,0,0,1,.833.9v3.6Z" transform="translate(0 -2)"/>
</svg>
